#!OML:ASF E:\emotionWalksFemale\Project 1\Capture day 1\Session 1\Female1.ASF
:FULLY-SPECIFIED
:DEGREES
1001
root 9.5763 15.3701 -26.2 -179.979 5.31986 -177.967
lowerback 6.24765 2.74207 6.7549
upperback 1.73985 4.30079 1.94862
thorax -1.35943 2.2193 -2.06656
lowerneck -2.46591 -0.335587 -3.93158
upperneck -8.16705 -1.28672 -4.40083
head -2.15519 -0.672315 -0.70084
rclavicle -4.29375e-014 1.66979e-014
rhumerus -10.1165 2.37637 -93.3326
rradius 37.6207
rwrist 15.6338
rhand 5.40605 -45.1719
rfingers 7.12502
rthumb 30.7572 -72.6194
lclavicle -4.29375e-014 1.66979e-014
lhumerus -45.1676 37.902 57.8377
lradius 31.4061
lwrist -23.4871
lhand 9.62739 -33.2149
lfingers 7.12502
lthumb 34.7729 -6.60606
rfemur 7.28007 13.4467 34.3672
rtibia 14.7199
rfoot -17.3894 -20.7563
rtoes -8.09325
lfemur -30.7059 -20.6469 -13.9835
ltibia 24.1455
lfoot -23.4232 24.7612
ltoes 8.128
1002
root 9.56795 15.3641 -26.2981 -179.689 5.57945 -177.813
lowerback 5.83484 2.7095 6.89256
upperback 1.71671 4.23326 2.03823
thorax -1.15594 2.19204 -2.02167
lowerneck -2.6891 -0.121016 -3.97453
upperneck -8.258 -1.00434 -4.36958
head -2.14428 -0.538386 -0.687453
rclavicle 5.70512e-014 1.03368e-014
rhumerus -10.0478 1.96173 -93.1881
rradius 37.0765
rwrist 15.6782
rhand 5.18628 -45.4446
rfingers 7.12502
rthumb 30.5476 -72.9313
lclavicle 5.70512e-014 1.03368e-014
lhumerus -45.3267 38.2916 57.1823
lradius 31.3771
lwrist -23.9789
lhand 7.16287 -33.5642
lfingers 7.12502
lthumb 32.4307 -6.4456
rfemur 7.64163 13.3294 34.4174
rtibia 14.2396
rfoot -17.833 -20.168
rtoes -5.02324
lfemur -31.3716 -23.5018 -12.428
ltibia 23.4162
lfoot -26.2809 26.9259
ltoes 12.9301
1003
root 9.55346 15.3541 -26.3963 -179.42 5.64388 -177.705
lowerback 5.56836 2.57071 7.06304
upperback 1.59061 4.04006 2.1055
thorax -1.1473 2.09234 -2.02513
lowerneck -2.7233 0.0279694 -3.64604
upperneck -8.35893 -0.855878 -4.75332
head -2.1752 -0.472244 -0.866137
rclavicle -2.08724e-015 -1.11319e-014
rhumerus -10.131 1.61041 -93.0463
rradius 36.4668
rwrist 15.8444
rhand 5.1752 -45.8632
rfingers 7.12502
rthumb 30.5371 -73.3518
lclavicle -2.08724e-015 -1.11319e-014
lhumerus -45.7646 38.5604 56.4543
lradius 31.5562
lwrist -24.2188
lhand 4.83931 -33.8109
lfingers 7.12502
lthumb 30.2167 -6.2631
rfemur 8.03073 13.2283 34.4123
rtibia 13.7049
rfoot -18.1563 -19.8497
rtoes -2.94051
lfemur -32.2055 -26.265 -10.9554
ltibia 22.9302
lfoot -29.3135 28.9985
ltoes 17.9083
1004
root 9.55195 15.3397 -26.4979 -179.266 6.17757 -177.499
lowerback 5.36913 2.60576 7.07251
upperback 1.55519 4.07702 2.23337
thorax -1.07872 2.11367 -1.89036
lowerneck -2.99501 0.11642 -3.5821
upperneck -8.39751 -0.722931 -4.60946
head -2.13789 -0.417075 -0.832723
rclavicle 4.19436e-014 -1.43125e-014
rhumerus -10.2193 1.12936 -92.8513
rradius 35.8542
rwrist 16.181
rhand 4.68934 -45.9719
rfingers 7.12502
rthumb 30.0736 -73.5458
lclavicle 4.19436e-014 -1.43125e-014
lhumerus -46.0052 38.422 56.1116
lradius 31.9402
lwrist -23.7789
lhand 2.65573 -34.1357
lfingers 7.12502
lthumb 28.1315 -6.22592
rfemur 8.64718 13.4801 34.5933
rtibia 13.1769
rfoot -18.3241 -19.3793
rtoes -1.28538
lfemur -32.7757 -28.6272 -9.41053
ltibia 22.6063
lfoot -32.2457 31.366
ltoes 21.1158
1005
root 9.52689 15.3175 -26.5929 -179.029 5.76043 -177.079
lowerback 5.13862 2.32371 7.78511
upperback 1.46896 3.73393 2.30547
thorax -1.02768 1.94693 -2.18221
lowerneck -3.30614 0.163483 -3.50236
upperneck -8.3804 -0.637063 -4.44981
head -2.07591 -0.386651 -0.796152
rclavicle -9.44227e-015 7.95139e-016
rhumerus -10.342 0.23186 -92.6376
rradius 35.2409
rwrist 16.7698
rhand 3.29145 -45.3504
rfingers 7.12502
rthumb 28.739 -73.1587
lclavicle -9.44227e-015 7.95139e-016
lhumerus -46.0831 38.2333 55.8996
lradius 32.3486
lwrist -23.1392
lhand 0.583996 -34.4667
lfingers 7.12502
lthumb 26.1496 -6.2475
rfemur 8.97307 12.9284 34.8918
rtibia 12.7531
rfoot -18.585 -18.9089
rtoes 0.274874
lfemur -33.5631 -30.434 -8.11867
ltibia 22.3457
lfoot -34.7989 32.4597
ltoes 25.0108
